<?xml version="1.0" encoding="utf-8"?>
<!-- Generator: Adobe Illustrator 23.0.4, SVG Export Plug-In . SVG Version: 6.00 Build 0)  -->
<svg version="1.1" id="Layer_1" xmlns="http://www.w3.org/2000/svg" xmlns:xlink="http://www.w3.org/1999/xlink" x="0px" y="0px"
	 viewBox="0 0 480 480" style="enable-background:new 0 0 480 480;" xml:space="preserve">
<style type="text/css">
	.st0{fill:#1a525f;}
</style>
<path class="st0" d="M240,0C107.5,0,0,107.5,0,240s107.5,240,240,240s240-107.5,240-240C479.9,107.5,372.5,0.1,240,0z M240,464
	C116.3,464,16,363.7,16,240S116.3,16,240,16s224,100.3,224,224C463.9,363.7,363.7,463.9,240,464z"/>
<g>
	<path class="st0" d="M380,197.3h-31.2v31h-31v31.2h31v31H380v-31h31v-31.2h-31V197.3z"/>
	<path class="st0" d="M278.5,242.5c0-7-0.7-12.4-1.7-17.8H175.9v36.7h60.7c-10.7,67-126.9,61.4-126.9-21.4c0-59.7,70.4-88,108.8-51
		l29-27.8C181.7,99.5,69,145.7,69,240C69,378,278.5,386.1,278.5,242.5L278.5,242.5z"/>
</g>
</svg>
