<?xml version="1.0" encoding="utf-8"?>
<!-- Generator: Adobe Illustrator 23.0.4, SVG Export Plug-In . SVG Version: 6.00 Build 0)  -->
<svg version="1.1" id="Layer_1" xmlns="http://www.w3.org/2000/svg" xmlns:xlink="http://www.w3.org/1999/xlink" x="0px" y="0px"
	 viewBox="0 0 480 480" style="enable-background:new 0 0 480 480;" xml:space="preserve">
<style type="text/css">
	.st0{fill:#1a525f;}
</style>
<path class="st0" d="M240,0C107.5,0,0,107.5,0,240s107.5,240,240,240s240-107.5,240-240C479.9,107.5,372.5,0.1,240,0z M240,464
	C116.3,464,16,363.7,16,240S116.3,16,240,16s224,100.3,224,224C463.9,363.7,363.7,463.9,240,464z"/>
<g>
	<path class="st0" d="M295,120H185c-35.8,0-65,29.1-65,65v110c0,35.8,29.1,65,65,65h110c35.8,0,65-29.1,65-65V185
		C360,149.1,330.9,120,295,120z M345.9,295c0,28.1-22.8,50.9-50.9,50.9H185c-28.1,0-50.9-22.8-50.9-50.9V185
		c0-28.1,22.8-50.9,50.9-50.9h110c28.1,0,50.9,22.8,50.9,50.9V295z"/>
	<path class="st0" d="M240,174.4c-36.2,0-65.6,29.4-65.6,65.6s29.4,65.6,65.6,65.6s65.6-29.4,65.6-65.6S276.2,174.4,240,174.4z
		 M240,291.6c-28.4,0-51.6-23.1-51.6-51.6c0-28.4,23.1-51.6,51.6-51.6c28.4,0,51.6,23.1,51.6,51.6
		C291.6,268.4,268.4,291.6,240,291.6z"/>
	<path class="st0" d="M307.2,151.1c-10.7,0-19.4,8.7-19.4,19.4s8.7,19.4,19.4,19.4s19.4-8.7,19.4-19.4S317.9,151.1,307.2,151.1z
		 M307.2,175.8c-2.9,0-5.3-2.4-5.3-5.3c0-2.9,2.4-5.3,5.3-5.3s5.3,2.4,5.3,5.3C312.5,173.4,310.1,175.8,307.2,175.8z"/>
</g>
</svg>
