<?xml version="1.0" encoding="utf-8"?>
<!-- Generator: Adobe Illustrator 23.0.4, SVG Export Plug-In . SVG Version: 6.00 Build 0)  -->
<svg version="1.1" id="Layer_1" xmlns="http://www.w3.org/2000/svg" xmlns:xlink="http://www.w3.org/1999/xlink" x="0px" y="0px"
	 viewBox="0 0 480 480" style="enable-background:new 0 0 480 480;" xml:space="preserve">
<style type="text/css">
	.st0{fill:#1a525f;}
</style>
<path class="st0" d="M240,0C107.5,0,0,107.5,0,240s107.5,240,240,240s240-107.5,240-240C479.9,107.5,372.5,0.1,240,0z M240,464
	C116.3,464,16,363.7,16,240S116.3,16,240,16s224,100.3,224,224C463.9,363.7,363.7,463.9,240,464z"/>
<path class="st0" d="M360,165.6c-8.9,3.9-18.4,6.5-28.4,7.8c10.2-6.1,18-15.7,21.6-27.2c-9.5,5.7-20,9.7-31.2,11.9
	c-9-9.6-21.9-15.6-35.9-15.6c-27.2,0-49.2,22.1-49.2,49.2c0,3.9,0.3,7.6,1.1,11.2c-40.9-2-77.1-21.6-101.4-51.5
	c-4.2,7.4-6.7,15.8-6.7,24.9c0,17,8.8,32.1,21.9,40.9c-7.9-0.2-15.7-2.4-22.2-6.1c0,0.1,0,0.3,0,0.5c0,23.9,17.1,43.8,39.4,48.3
	c-4,1.1-8.4,1.6-12.9,1.6c-3.1,0-6.3-0.2-9.3-0.8c6.4,19.5,24.5,33.8,46,34.3c-16.7,13.1-38,21-61,21c-4,0-7.9-0.2-11.8-0.7
	c21.8,14.1,47.6,22.1,75.5,22.1c90.5,0,140-75,140-140c0-2.2-0.1-4.3-0.2-6.4C345.1,184.2,353.3,175.5,360,165.6z"/>
</svg>
